<svg id="wave" style="transform:rotate(0deg); transition: 0.3s" viewBox="0 0 1440 100" version="1.1" xmlns="http://www.w3.org/2000/svg"><defs><linearGradient id="sw-gradient-0" x1="0" x2="0" y1="1" y2="0"><stop stop-color="rgba(96, 153, 102, 1)" offset="0%"></stop><stop stop-color="rgba(96, 153, 102, 1)" offset="100%"></stop></linearGradient></defs><path style="transform:translate(0, 0px); opacity:1" fill="url(#sw-gradient-0)" d="M0,20L21.8,28.3C43.6,37,87,53,131,51.7C174.5,50,218,30,262,33.3C305.5,37,349,63,393,73.3C436.4,83,480,77,524,76.7C567.3,77,611,83,655,85C698.2,87,742,83,785,73.3C829.1,63,873,47,916,36.7C960,27,1004,23,1047,25C1090.9,27,1135,33,1178,36.7C1221.8,40,1265,40,1309,46.7C1352.7,53,1396,67,1440,68.3C1483.6,70,1527,60,1571,60C1614.5,60,1658,70,1702,76.7C1745.5,83,1789,87,1833,81.7C1876.4,77,1920,63,1964,58.3C2007.3,53,2051,57,2095,60C2138.2,63,2182,67,2225,56.7C2269.1,47,2313,23,2356,20C2400,17,2444,33,2487,48.3C2530.9,63,2575,77,2618,83.3C2661.8,90,2705,90,2749,80C2792.7,70,2836,50,2880,40C2923.6,30,2967,30,3011,30C3054.5,30,3098,30,3120,30L3141.8,30L3141.8,100L3120,100C3098.2,100,3055,100,3011,100C2967.3,100,2924,100,2880,100C2836.4,100,2793,100,2749,100C2705.5,100,2662,100,2618,100C2574.5,100,2531,100,2487,100C2443.6,100,2400,100,2356,100C2312.7,100,2269,100,2225,100C2181.8,100,2138,100,2095,100C2050.9,100,2007,100,1964,100C1920,100,1876,100,1833,100C1789.1,100,1745,100,1702,100C1658.2,100,1615,100,1571,100C1527.3,100,1484,100,1440,100C1396.4,100,1353,100,1309,100C1265.5,100,1222,100,1178,100C1134.5,100,1091,100,1047,100C1003.6,100,960,100,916,100C872.7,100,829,100,785,100C741.8,100,698,100,655,100C610.9,100,567,100,524,100C480,100,436,100,393,100C349.1,100,305,100,262,100C218.2,100,175,100,131,100C87.3,100,44,100,22,100L0,100Z"></path></svg>